<svg width="24" height="25" viewBox="0 0 24 25" fill="none" xmlns="http://www.w3.org/2000/svg">
<path d="M12 15.5C13.6569 15.5 15 14.1569 15 12.5C15 10.8431 13.6569 9.5 12 9.5C10.3431 9.5 9 10.8431 9 12.5C9 14.1569 10.3431 15.5 12 15.5Z" fill="white"/>
<path d="M12 15.5C13.6569 15.5 15 14.1569 15 12.5C15 10.8431 13.6569 9.5 12 9.5C10.3431 9.5 9 10.8431 9 12.5C9 14.1569 10.3431 15.5 12 15.5Z" fill="#00CDC2"/>
<path d="M22.9563 12.2527C22.0938 10.0401 20.5964 8.12663 18.6492 6.74879C16.702 5.37095 14.3904 4.58914 12 4.5C9.60964 4.58914 7.29802 5.37095 5.35083 6.74879C3.40363 8.12663 1.90623 10.0401 1.04369 12.2527C0.985437 12.4125 0.985437 12.5875 1.04369 12.7473C1.90623 14.9599 3.40363 16.8734 5.35083 18.2512C7.29802 19.6291 9.60964 20.4109 12 20.5C14.3904 20.4109 16.702 19.6291 18.6492 18.2512C20.5964 16.8734 22.0938 14.9599 22.9563 12.7473C23.0146 12.5875 23.0146 12.4125 22.9563 12.2527V12.2527ZM12 17.2273C11.0572 17.2273 10.1356 16.95 9.35171 16.4306C8.56781 15.9111 7.95684 15.1728 7.59605 14.309C7.23526 13.4453 7.14086 12.4948 7.32479 11.5778C7.50872 10.6608 7.96271 9.81843 8.62936 9.15731C9.29601 8.49619 10.1454 8.04596 11.07 7.86356C11.9947 7.68116 12.9532 7.77477 13.8242 8.13257C14.6952 8.49037 15.4397 9.09627 15.9635 9.87367C16.4872 10.6511 16.7668 11.565 16.7668 12.5C16.7649 13.7532 16.262 14.9544 15.3685 15.8406C14.475 16.7267 13.2636 17.2253 12 17.2273V17.2273Z" fill="white"/>
<path d="M22.9563 12.2527C22.0938 10.0401 20.5964 8.12663 18.6492 6.74879C16.702 5.37095 14.3904 4.58914 12 4.5C9.60964 4.58914 7.29802 5.37095 5.35083 6.74879C3.40363 8.12663 1.90623 10.0401 1.04369 12.2527C0.985437 12.4125 0.985437 12.5875 1.04369 12.7473C1.90623 14.9599 3.40363 16.8734 5.35083 18.2512C7.29802 19.6291 9.60964 20.4109 12 20.5C14.3904 20.4109 16.702 19.6291 18.6492 18.2512C20.5964 16.8734 22.0938 14.9599 22.9563 12.7473C23.0146 12.5875 23.0146 12.4125 22.9563 12.2527V12.2527ZM12 17.2273C11.0572 17.2273 10.1356 16.95 9.35171 16.4306C8.56781 15.9111 7.95684 15.1728 7.59605 14.309C7.23526 13.4453 7.14086 12.4948 7.32479 11.5778C7.50872 10.6608 7.96271 9.81843 8.62936 9.15731C9.29601 8.49619 10.1454 8.04596 11.07 7.86356C11.9947 7.68116 12.9532 7.77477 13.8242 8.13257C14.6952 8.49037 15.4397 9.09627 15.9635 9.87367C16.4872 10.6511 16.7668 11.565 16.7668 12.5C16.7649 13.7532 16.262 14.9544 15.3685 15.8406C14.475 16.7267 13.2636 17.2253 12 17.2273V17.2273Z" fill="#00CDC2"/>
</svg>
