<svg width="124" height="112" viewBox="0 0 124 112" fill="none" xmlns="http://www.w3.org/2000/svg">
<path d="M105.987 112H17.9538C11.4905 112 5.62562 108.655 2.39396 103.04C-0.8377 97.4251 -0.8377 90.7349 2.39396 85.12L46.4403 8.96C49.672 3.34507 55.477 0 62.0001 0C68.5233 0 74.3283 3.34507 77.56 8.96L121.546 85.12C124.778 90.7349 124.778 97.4251 121.546 103.04C118.315 108.655 112.51 112 105.987 112ZM62.0001 8.96C58.7685 8.96 55.8361 10.6325 54.2202 13.44L10.2337 89.6C8.6179 92.4075 8.6179 95.7525 10.2337 98.56C11.8496 101.367 14.782 103.04 18.0137 103.04H106.046C109.278 103.04 112.211 101.367 113.826 98.56C115.442 95.7525 115.442 92.4075 113.826 89.6L69.7801 13.44C68.1642 10.6325 65.2318 8.96 62.0001 8.96ZM62.06 89.6C59.6063 89.6 57.5117 87.5691 57.5117 85.12C57.5117 82.6709 59.5465 80.5803 62.0001 80.5803C64.4538 80.5803 66.4886 82.6112 66.4886 85.0603C66.4886 87.5093 64.4538 89.6 62.0001 89.6H62.06ZM62.06 71.6203C59.6063 71.6203 57.5716 69.5893 57.5716 67.1403V44.7403C57.5716 42.2912 59.6063 40.2603 62.06 40.2603C64.5137 40.2603 66.5484 42.2912 66.5484 44.7403V67.1403C66.5484 69.5893 64.5137 71.6203 62.06 71.6203Z" fill="#E20C00"/>
</svg>
