<svg width="20" height="20" viewBox="0 0 38 34" fill="none" xmlns="http://www.w3.org/2000/svg">
<path d="M37.3332 21.9119C37.2783 22.1036 37.2283 22.2963 37.1667 22.4861C36.7261 23.8501 35.4775 24.7914 34.0354 24.848C33.8805 24.8537 33.7257 24.8547 33.5698 24.8547C25.8863 24.8547 18.2029 24.8403 10.5194 24.8672C8.84068 24.8729 7.68628 24.1185 6.97055 22.6903C6.75699 22.2646 6.78008 21.6962 6.77912 21.1939C6.76661 15.522 6.77142 9.85017 6.77334 4.1783C6.77334 3.94153 6.7897 3.70284 6.8176 3.46704C7.00903 1.85855 8.40874 0.572147 10.0355 0.505046C10.2019 0.498336 10.3693 0.500253 10.5367 0.500253C18.2086 0.500253 25.8796 0.500253 33.5515 0.500253C35.591 0.500253 36.7713 1.40898 37.2879 3.37405C37.2928 3.39418 37.3178 3.40856 37.3332 3.42582V21.9109V21.9119ZM35.0272 15.9898C35.0349 15.8365 35.0417 15.7694 35.0417 15.7013C35.0417 11.7999 35.0436 7.89852 35.0407 3.99808C35.0407 3.2389 34.5559 2.78453 33.7613 2.78453C25.9566 2.78453 18.1509 2.78453 10.3462 2.78453C9.52178 2.78453 9.06482 3.2389 9.06386 4.06998C9.06194 9.07756 9.0629 14.0842 9.06386 19.0918C9.06386 19.178 9.08118 19.2634 9.09561 19.3966C9.22067 19.2787 9.30821 19.2001 9.39094 19.1177C10.9109 17.6041 12.4318 16.0924 13.9479 14.5759C14.327 14.1973 14.755 13.904 15.2803 13.7822C16.2923 13.5474 17.1668 13.8091 17.9008 14.5385C18.4895 15.1242 19.0754 15.7118 19.6824 16.3186C20.1903 15.7128 20.6713 15.1386 21.1514 14.5644C22.5184 12.9291 23.8873 11.2957 25.2505 9.65654C26.0066 8.74685 26.9599 8.39697 28.1172 8.64429C28.8108 8.79286 29.2658 9.28557 29.7055 9.79841C31.4563 11.8421 33.2129 13.881 35.0263 15.9908L35.0272 15.9898ZM9.41114 22.2301C9.78728 22.5771 10.1336 22.5733 10.4818 22.5733C18.1913 22.5723 25.9017 22.5723 33.6112 22.5723C33.7064 22.5723 33.8026 22.5743 33.8979 22.5704C34.5732 22.5436 35.0282 22.0835 35.0398 21.4038C35.0474 20.9284 35.0186 20.451 35.0494 19.9775C35.0715 19.6391 34.9484 19.3995 34.7358 19.1531C32.4539 16.5132 30.1807 13.8656 27.9056 11.219C27.4784 10.7225 27.3409 10.7263 26.9109 11.2401C24.858 13.6988 22.8041 16.1576 20.7493 18.6144C20.1711 19.3065 19.4785 19.34 18.8435 18.7103C18.0153 17.8878 17.1899 17.0615 16.3625 16.2381C15.9797 15.8566 15.9066 15.8566 15.5237 16.2381C13.667 18.0881 11.8113 19.9391 9.95179 21.7863C9.79306 21.9445 9.6045 22.0729 9.41114 22.2292V22.2301Z" fill="#4D4D4D"/>
<path d="M0.666656 23.7671C1.04857 22.3225 1.43241 20.8789 1.8124 19.4334C2.33188 17.4578 2.84558 15.4812 3.36891 13.5075C3.5161 12.9525 3.91725 12.6294 4.43288 12.6112C4.94178 12.593 5.39103 12.8595 5.5363 13.3474C5.61037 13.5947 5.61518 13.8948 5.55073 14.1449C4.73206 17.3303 3.89705 20.5118 3.06396 23.6942C2.80807 24.6701 3.09955 25.1829 4.07598 25.4436C11.8076 27.5074 19.5401 29.5703 27.2727 31.6322C28.0971 31.8517 28.6512 31.5277 28.859 30.7062C29.1091 29.716 29.3486 28.7229 29.5978 27.7327C29.771 27.0425 30.3501 26.6486 30.9706 26.7895C31.6353 26.9409 31.9932 27.5515 31.8191 28.2724C31.5689 29.3115 31.3179 30.3506 31.0427 31.383C30.5281 33.3174 28.6945 34.3747 26.7513 33.857C20.7897 32.2706 14.8302 30.6784 8.87058 29.0881C7.06395 28.606 5.2602 28.1142 3.45164 27.6416C1.97305 27.2553 1.04953 26.3476 0.724377 24.8493C0.717643 24.8187 0.685896 24.7928 0.666656 24.765C0.666656 24.4323 0.666656 24.0988 0.666656 23.7661V23.7671Z" fill="#4D4D4D"/>
<path d="M14.4002 11.1477C12.7205 11.1401 11.3497 9.76929 11.3574 8.10329C11.3641 6.421 12.7581 5.05312 14.4502 5.0675C16.1202 5.08187 17.4959 6.4766 17.4738 8.13493C17.4507 9.81531 16.0847 11.1554 14.4012 11.1477H14.4002ZM14.4291 8.86153C14.8427 8.85577 15.1756 8.52315 15.1784 8.11384C15.1813 7.6959 14.8225 7.34411 14.4012 7.35177C13.9942 7.35944 13.6537 7.70069 13.6508 8.10521C13.6479 8.52507 14 8.86728 14.4281 8.86153H14.4291Z" fill="#4D4D4D"/>
</svg>
