<svg width="18" height="18" viewBox="0 0 18 18" fill="none" xmlns="http://www.w3.org/2000/svg">
<path d="M10.1328 9.55002C10.0428 9.53002 9.95277 9.52002 9.87277 9.52002C7.98277 9.52002 6.08277 9.52002 4.19277 9.52002C4.07277 9.52002 3.94277 9.52002 3.82277 9.52002C3.55277 9.52002 3.26277 9.52002 2.99277 9.52002C2.20278 9.54002 1.60277 9.91002 1.23277 10.61C1.14277 10.78 1.09277 10.97 1.03277 11.16C1.01277 11.24 0.982769 11.33 0.962769 11.41V15.63V15.64C0.962769 15.65 0.962771 15.67 0.972771 15.68C0.972771 15.7 0.982773 15.71 0.982773 15.73C1.17277 16.82 1.98277 17.53 3.03277 17.53C3.59277 17.53 4.13277 17.53 4.64277 17.53C5.46277 17.53 6.21277 17.53 6.93277 17.53C7.13277 17.53 7.28277 17.51 7.42277 17.48C8.38277 17.25 9.00277 16.42 9.01277 15.37C9.01277 14.37 9.01277 13.39 9.01277 12.57C9.01277 12.44 9.04277 12.34 9.11277 12.24C9.41277 11.82 9.70277 11.41 10.0028 10.99L10.3428 10.51C10.3828 10.45 10.4228 10.39 10.4528 10.33C10.5228 10.18 10.5328 10 10.4528 9.85002C10.3928 9.71002 10.2628 9.60002 10.1228 9.56002L10.1328 9.55002ZM7.97277 14.41C7.97277 14.69 7.97277 14.98 7.97277 15.26C7.97277 16.01 7.57277 16.44 6.87277 16.44H3.08277C2.39277 16.44 1.98277 16.01 1.98277 15.28C1.98277 14.1 1.98277 12.92 1.98277 11.74C1.98277 11.07 2.40277 10.62 3.02277 10.62C3.86277 10.62 4.71277 10.62 5.55277 10.62H8.93277C8.93277 10.62 8.94277 10.62 8.95277 10.62L8.77277 10.88C8.56277 11.17 8.37277 11.45 8.17277 11.73C8.03277 11.92 7.96277 12.12 7.97277 12.37C7.97277 13.05 7.97277 13.74 7.97277 14.41Z" fill="white"/>
<path d="M10.1328 9.55002C10.0428 9.53002 9.95277 9.52002 9.87277 9.52002C7.98277 9.52002 6.08277 9.52002 4.19277 9.52002C4.07277 9.52002 3.94277 9.52002 3.82277 9.52002C3.55277 9.52002 3.26277 9.52002 2.99277 9.52002C2.20278 9.54002 1.60277 9.91002 1.23277 10.61C1.14277 10.78 1.09277 10.97 1.03277 11.16C1.01277 11.24 0.982769 11.33 0.962769 11.41V15.63V15.64C0.962769 15.65 0.962771 15.67 0.972771 15.68C0.972771 15.7 0.982773 15.71 0.982773 15.73C1.17277 16.82 1.98277 17.53 3.03277 17.53C3.59277 17.53 4.13277 17.53 4.64277 17.53C5.46277 17.53 6.21277 17.53 6.93277 17.53C7.13277 17.53 7.28277 17.51 7.42277 17.48C8.38277 17.25 9.00277 16.42 9.01277 15.37C9.01277 14.37 9.01277 13.39 9.01277 12.57C9.01277 12.44 9.04277 12.34 9.11277 12.24C9.41277 11.82 9.70277 11.41 10.0028 10.99L10.3428 10.51C10.3828 10.45 10.4228 10.39 10.4528 10.33C10.5228 10.18 10.5328 10 10.4528 9.85002C10.3928 9.71002 10.2628 9.60002 10.1228 9.56002L10.1328 9.55002ZM7.97277 14.41C7.97277 14.69 7.97277 14.98 7.97277 15.26C7.97277 16.01 7.57277 16.44 6.87277 16.44H3.08277C2.39277 16.44 1.98277 16.01 1.98277 15.28C1.98277 14.1 1.98277 12.92 1.98277 11.74C1.98277 11.07 2.40277 10.62 3.02277 10.62C3.86277 10.62 4.71277 10.62 5.55277 10.62H8.93277C8.93277 10.62 8.94277 10.62 8.95277 10.62L8.77277 10.88C8.56277 11.17 8.37277 11.45 8.17277 11.73C8.03277 11.92 7.96277 12.12 7.97277 12.37C7.97277 13.05 7.97277 13.74 7.97277 14.41Z" fill="#00CDC2"/>
<path d="M8.10277 8.49023C10.2828 8.49023 12.4528 8.49023 14.6328 8.49023H14.7228C14.8428 8.49023 14.9728 8.49023 15.1028 8.49023C16.2028 8.43023 17.0328 7.53023 17.0428 6.38023C17.0528 5.17023 17.0528 3.94023 17.0428 2.61023C17.0428 1.92023 16.7528 1.34023 16.2128 0.900234C15.9228 0.670234 15.5828 0.570234 15.2628 0.490234H10.7628C10.7628 0.490234 10.7528 0.500235 10.7328 0.510235C9.59276 0.760235 8.98277 1.55023 8.98277 2.79023V3.46023C8.98277 4.13023 8.98277 4.80023 8.98277 5.47023C8.98277 5.59023 8.95277 5.68023 8.89277 5.77024C8.62277 6.14023 8.36277 6.52024 8.10277 6.89024C7.94277 7.12024 7.78277 7.34023 7.62277 7.57023C7.46277 7.79023 7.44277 8.00024 7.55277 8.21024C7.68277 8.47024 7.92277 8.50023 8.11277 8.50023L8.10277 8.49023ZM10.0128 3.53023V2.75023C10.0128 2.01023 10.4128 1.58023 11.1128 1.58023H14.9028C15.6028 1.58023 15.9928 2.01023 15.9928 2.75023V6.24023C15.9928 6.97023 15.5828 7.41023 14.9028 7.41023H9.01277L9.23277 7.09023C9.43277 6.80023 9.62277 6.53023 9.82277 6.26023C9.94277 6.09023 10.0028 5.90023 10.0028 5.68023C10.0028 4.96023 10.0028 4.24023 10.0028 3.53023H10.0128Z" fill="white"/>
<path d="M8.10277 8.49023C10.2828 8.49023 12.4528 8.49023 14.6328 8.49023H14.7228C14.8428 8.49023 14.9728 8.49023 15.1028 8.49023C16.2028 8.43023 17.0328 7.53023 17.0428 6.38023C17.0528 5.17023 17.0528 3.94023 17.0428 2.61023C17.0428 1.92023 16.7528 1.34023 16.2128 0.900234C15.9228 0.670234 15.5828 0.570234 15.2628 0.490234H10.7628C10.7628 0.490234 10.7528 0.500235 10.7328 0.510235C9.59276 0.760235 8.98277 1.55023 8.98277 2.79023V3.46023C8.98277 4.13023 8.98277 4.80023 8.98277 5.47023C8.98277 5.59023 8.95277 5.68023 8.89277 5.77024C8.62277 6.14023 8.36277 6.52024 8.10277 6.89024C7.94277 7.12024 7.78277 7.34023 7.62277 7.57023C7.46277 7.79023 7.44277 8.00024 7.55277 8.21024C7.68277 8.47024 7.92277 8.50023 8.11277 8.50023L8.10277 8.49023ZM10.0128 3.53023V2.75023C10.0128 2.01023 10.4128 1.58023 11.1128 1.58023H14.9028C15.6028 1.58023 15.9928 2.01023 15.9928 2.75023V6.24023C15.9928 6.97023 15.5828 7.41023 14.9028 7.41023H9.01277L9.23277 7.09023C9.43277 6.80023 9.62277 6.53023 9.82277 6.26023C9.94277 6.09023 10.0028 5.90023 10.0028 5.68023C10.0028 4.96023 10.0028 4.24023 10.0028 3.53023H10.0128Z" fill="#00CDC2"/>
<path d="M1.54278 8.49023C2.80278 8.49023 4.07278 8.49023 5.33278 8.49023H6.41278C6.79278 8.49023 7.00278 8.28024 7.00278 7.87024C7.00278 7.60024 7.00278 7.34023 7.00278 7.07023V6.91023C7.00278 5.96023 6.67278 5.17023 6.03278 4.54023C5.90278 4.41023 5.76278 4.30024 5.62278 4.19024C5.57278 4.15024 5.52278 4.11023 5.47278 4.07023L5.49278 4.05023C5.91278 3.54023 6.08278 2.88023 5.97278 2.24023C5.87278 1.63023 5.51278 1.09023 4.98278 0.780233C4.82278 0.680233 4.65278 0.630234 4.47278 0.570234C4.39278 0.540234 4.31278 0.520234 4.23278 0.490234H3.74278C3.44278 0.560234 3.09278 0.660234 2.79278 0.900234C2.33278 1.26023 2.04278 1.78023 1.97278 2.38023C1.90278 2.98023 2.07278 3.57023 2.45278 4.04023C2.46278 4.05023 2.47278 4.07023 2.48278 4.08023C2.42278 4.13023 2.36278 4.18023 2.31278 4.22023C2.15278 4.35023 1.98278 4.49023 1.83278 4.65023C1.34278 5.16023 1.05278 5.77023 0.972778 6.48023C0.972778 6.50023 0.972782 6.51023 0.952782 6.53023V6.56023L0.94278 8.07023V8.09023C1.04278 8.38023 1.24278 8.52023 1.54278 8.52023V8.49023ZM4.63278 3.40023C4.46278 3.57023 4.23278 3.66023 4.00278 3.67023H3.95278C3.69278 3.67023 3.45278 3.55023 3.27278 3.36023C3.08278 3.16023 2.98278 2.89023 2.98278 2.61023C3.00278 2.04023 3.43278 1.58023 3.96278 1.58023H3.98278C4.52278 1.58023 4.96278 2.07023 4.95278 2.63023C4.95278 2.92023 4.83278 3.20023 4.62278 3.40023H4.63278ZM2.43278 5.52024C2.75278 5.10023 3.22278 4.84023 3.74278 4.78023C4.30278 4.71023 4.83278 4.88023 5.24278 5.24023C5.69278 5.64023 5.95278 6.23023 5.96278 6.90023C5.96278 7.01023 5.96278 7.12023 5.96278 7.24023V7.38023H1.99278C1.89278 6.67023 2.05278 6.01023 2.43278 5.52024Z" fill="white"/>
<path d="M1.54278 8.49023C2.80278 8.49023 4.07278 8.49023 5.33278 8.49023H6.41278C6.79278 8.49023 7.00278 8.28024 7.00278 7.87024C7.00278 7.60024 7.00278 7.34023 7.00278 7.07023V6.91023C7.00278 5.96023 6.67278 5.17023 6.03278 4.54023C5.90278 4.41023 5.76278 4.30024 5.62278 4.19024C5.57278 4.15024 5.52278 4.11023 5.47278 4.07023L5.49278 4.05023C5.91278 3.54023 6.08278 2.88023 5.97278 2.24023C5.87278 1.63023 5.51278 1.09023 4.98278 0.780233C4.82278 0.680233 4.65278 0.630234 4.47278 0.570234C4.39278 0.540234 4.31278 0.520234 4.23278 0.490234H3.74278C3.44278 0.560234 3.09278 0.660234 2.79278 0.900234C2.33278 1.26023 2.04278 1.78023 1.97278 2.38023C1.90278 2.98023 2.07278 3.57023 2.45278 4.04023C2.46278 4.05023 2.47278 4.07023 2.48278 4.08023C2.42278 4.13023 2.36278 4.18023 2.31278 4.22023C2.15278 4.35023 1.98278 4.49023 1.83278 4.65023C1.34278 5.16023 1.05278 5.77023 0.972778 6.48023C0.972778 6.50023 0.972782 6.51023 0.952782 6.53023V6.56023L0.94278 8.07023V8.09023C1.04278 8.38023 1.24278 8.52023 1.54278 8.52023V8.49023ZM4.63278 3.40023C4.46278 3.57023 4.23278 3.66023 4.00278 3.67023H3.95278C3.69278 3.67023 3.45278 3.55023 3.27278 3.36023C3.08278 3.16023 2.98278 2.89023 2.98278 2.61023C3.00278 2.04023 3.43278 1.58023 3.96278 1.58023H3.98278C4.52278 1.58023 4.96278 2.07023 4.95278 2.63023C4.95278 2.92023 4.83278 3.20023 4.62278 3.40023H4.63278ZM2.43278 5.52024C2.75278 5.10023 3.22278 4.84023 3.74278 4.78023C4.30278 4.71023 4.83278 4.88023 5.24278 5.24023C5.69278 5.64023 5.95278 6.23023 5.96278 6.90023C5.96278 7.01023 5.96278 7.12023 5.96278 7.24023V7.38023H1.99278C1.89278 6.67023 2.05278 6.01023 2.43278 5.52024Z" fill="#00CDC2"/>
<path d="M15.9328 13.4501C15.8328 13.3601 15.7228 13.2801 15.6128 13.2001C15.5728 13.1701 15.5428 13.1501 15.5128 13.1201C16.3328 12.1201 16.1128 10.8101 15.4128 10.1201C14.6528 9.36007 13.4828 9.34007 12.6828 10.0601C11.9428 10.7401 11.6728 12.1001 12.5328 13.1301C12.5028 13.1501 12.4628 13.1701 12.4328 13.2001C11.7428 13.6701 11.2928 14.3101 11.0928 15.1001C10.9528 15.6701 10.9728 16.2601 11.0028 16.8201V17.0501C11.0228 17.3201 11.2428 17.5201 11.5428 17.5201C12.3728 17.5201 13.2028 17.5201 14.0328 17.5201C14.8628 17.5201 15.7028 17.5201 16.5228 17.5201C16.8428 17.5201 17.0528 17.3001 17.0528 16.9601V16.7501C17.0528 16.4201 17.0628 16.0801 17.0528 15.7501C17.0128 14.8301 16.6428 14.0601 15.9428 13.4401L15.9328 13.4501ZM14.0628 12.7101H14.0228C13.4828 12.7101 13.0428 12.2401 13.0428 11.6701C13.0428 11.1001 13.4728 10.6301 14.0228 10.6201H14.0328C14.2728 10.6201 14.5028 10.7201 14.6928 10.9101C14.9028 11.1101 15.0128 11.3901 15.0128 11.6801C15.0128 12.2401 14.5928 12.7001 14.0728 12.7201L14.0628 12.7101ZM12.0428 16.4301C11.9228 15.2101 12.4028 14.3001 13.3728 13.9301C13.9428 13.7101 14.5628 13.7901 15.0828 14.1301C15.6428 14.5001 15.9928 15.1401 16.0228 15.8401C16.0228 15.9801 16.0228 16.1201 16.0228 16.2701C16.0228 16.3201 16.0228 16.3801 16.0228 16.4301H12.0528H12.0428Z" fill="white"/>
<path d="M15.9328 13.4501C15.8328 13.3601 15.7228 13.2801 15.6128 13.2001C15.5728 13.1701 15.5428 13.1501 15.5128 13.1201C16.3328 12.1201 16.1128 10.8101 15.4128 10.1201C14.6528 9.36007 13.4828 9.34007 12.6828 10.0601C11.9428 10.7401 11.6728 12.1001 12.5328 13.1301C12.5028 13.1501 12.4628 13.1701 12.4328 13.2001C11.7428 13.6701 11.2928 14.3101 11.0928 15.1001C10.9528 15.6701 10.9728 16.2601 11.0028 16.8201V17.0501C11.0228 17.3201 11.2428 17.5201 11.5428 17.5201C12.3728 17.5201 13.2028 17.5201 14.0328 17.5201C14.8628 17.5201 15.7028 17.5201 16.5228 17.5201C16.8428 17.5201 17.0528 17.3001 17.0528 16.9601V16.7501C17.0528 16.4201 17.0628 16.0801 17.0528 15.7501C17.0128 14.8301 16.6428 14.0601 15.9428 13.4401L15.9328 13.4501ZM14.0628 12.7101H14.0228C13.4828 12.7101 13.0428 12.2401 13.0428 11.6701C13.0428 11.1001 13.4728 10.6301 14.0228 10.6201H14.0328C14.2728 10.6201 14.5028 10.7201 14.6928 10.9101C14.9028 11.1101 15.0128 11.3901 15.0128 11.6801C15.0128 12.2401 14.5928 12.7001 14.0728 12.7201L14.0628 12.7101ZM12.0428 16.4301C11.9228 15.2101 12.4028 14.3001 13.3728 13.9301C13.9428 13.7101 14.5628 13.7901 15.0828 14.1301C15.6428 14.5001 15.9928 15.1401 16.0228 15.8401C16.0228 15.9801 16.0228 16.1201 16.0228 16.2701C16.0228 16.3201 16.0228 16.3801 16.0228 16.4301H12.0528H12.0428Z" fill="#00CDC2"/>
<path d="M6.43278 11.9204C5.79278 11.9204 5.14278 11.9204 4.50278 11.9204H3.53278C3.48278 11.9204 3.43278 11.9204 3.38278 11.9404C3.18278 11.9804 3.04278 12.1204 2.98278 12.3204C2.93278 12.4904 2.96278 12.6704 3.06278 12.8004C3.16278 12.9304 3.32278 13.0104 3.50278 13.0104C3.70278 13.0104 3.90278 13.0104 4.09278 13.0104C4.39278 13.0104 4.68278 13.0104 4.98278 13.0104H5.32278C5.44278 13.0104 5.55278 13.0104 5.67278 13.0104C5.94278 13.0104 6.22278 13.0104 6.49278 13.0104C6.66278 13.0104 6.81278 12.9204 6.90278 12.7804C7.00278 12.6304 7.02278 12.4504 6.96278 12.2804C6.88278 12.0504 6.69278 11.9204 6.42278 11.9204H6.43278Z" fill="white"/>
<path d="M6.43278 11.9204C5.79278 11.9204 5.14278 11.9204 4.50278 11.9204H3.53278C3.48278 11.9204 3.43278 11.9204 3.38278 11.9404C3.18278 11.9804 3.04278 12.1204 2.98278 12.3204C2.93278 12.4904 2.96278 12.6704 3.06278 12.8004C3.16278 12.9304 3.32278 13.0104 3.50278 13.0104C3.70278 13.0104 3.90278 13.0104 4.09278 13.0104C4.39278 13.0104 4.68278 13.0104 4.98278 13.0104H5.32278C5.44278 13.0104 5.55278 13.0104 5.67278 13.0104C5.94278 13.0104 6.22278 13.0104 6.49278 13.0104C6.66278 13.0104 6.81278 12.9204 6.90278 12.7804C7.00278 12.6304 7.02278 12.4504 6.96278 12.2804C6.88278 12.0504 6.69278 11.9204 6.42278 11.9204H6.43278Z" fill="#00CDC2"/>
<path d="M4.95279 14.05C4.79279 14.05 4.63279 14.05 4.47279 14.05H4.24279H3.99279C3.83279 14.05 3.67279 14.05 3.51279 14.05C3.19279 14.05 2.96279 14.27 2.95279 14.58C2.95279 14.73 3.00278 14.87 3.10278 14.97C3.20278 15.07 3.34279 15.13 3.49279 15.13C3.73279 15.13 3.98279 15.13 4.23279 15.13C4.48279 15.13 4.72278 15.13 4.96278 15.13C5.11278 15.13 5.25279 15.07 5.34279 14.97C5.44279 14.87 5.49279 14.72 5.49279 14.57C5.49279 14.26 5.26279 14.05 4.95279 14.04V14.05Z" fill="white"/>
<path d="M4.95279 14.05C4.79279 14.05 4.63279 14.05 4.47279 14.05H4.24279H3.99279C3.83279 14.05 3.67279 14.05 3.51279 14.05C3.19279 14.05 2.96279 14.27 2.95279 14.58C2.95279 14.73 3.00278 14.87 3.10278 14.97C3.20278 15.07 3.34279 15.13 3.49279 15.13C3.73279 15.13 3.98279 15.13 4.23279 15.13C4.48279 15.13 4.72278 15.13 4.96278 15.13C5.11278 15.13 5.25279 15.07 5.34279 14.97C5.44279 14.87 5.49279 14.72 5.49279 14.57C5.49279 14.26 5.26279 14.05 4.95279 14.04V14.05Z" fill="#00CDC2"/>
<path d="M11.9328 4.23008C12.0728 4.24008 12.2028 4.22008 12.3028 4.14008C12.4228 4.05008 12.4928 3.90008 12.5228 3.71008C12.5228 3.67008 12.5328 3.62008 12.5428 3.58008C12.5728 3.45008 12.6528 3.33008 12.7628 3.25008C12.8628 3.18008 12.9828 3.16008 13.0928 3.18008C13.3628 3.24008 13.5328 3.49008 13.4928 3.76008C13.4528 4.03008 13.3028 4.15008 12.9728 4.21008C12.6628 4.26008 12.4828 4.50008 12.5128 4.81008C12.5428 5.10008 12.7628 5.29008 13.0628 5.29008H13.0828C13.4728 5.28008 13.8628 5.09008 14.1428 4.77008C14.4428 4.43008 14.5828 3.97008 14.5328 3.51008C14.4428 2.69008 13.8028 2.08008 13.0328 2.08008H13.0028C12.2128 2.10008 11.5728 2.74008 11.5128 3.55008V3.58008C11.4828 3.93008 11.6528 4.19008 11.9428 4.23008H11.9328Z" fill="white"/>
<path d="M11.9328 4.23008C12.0728 4.24008 12.2028 4.22008 12.3028 4.14008C12.4228 4.05008 12.4928 3.90008 12.5228 3.71008C12.5228 3.67008 12.5328 3.62008 12.5428 3.58008C12.5728 3.45008 12.6528 3.33008 12.7628 3.25008C12.8628 3.18008 12.9828 3.16008 13.0928 3.18008C13.3628 3.24008 13.5328 3.49008 13.4928 3.76008C13.4528 4.03008 13.3028 4.15008 12.9728 4.21008C12.6628 4.26008 12.4828 4.50008 12.5128 4.81008C12.5428 5.10008 12.7628 5.29008 13.0628 5.29008H13.0828C13.4728 5.28008 13.8628 5.09008 14.1428 4.77008C14.4428 4.43008 14.5828 3.97008 14.5328 3.51008C14.4428 2.69008 13.8028 2.08008 13.0328 2.08008H13.0028C12.2128 2.10008 11.5728 2.74008 11.5128 3.55008V3.58008C11.4828 3.93008 11.6528 4.19008 11.9428 4.23008H11.9328Z" fill="#00CDC2"/>
<path d="M13.0228 5.81029C12.8828 5.81029 12.7528 5.86029 12.6628 5.96029C12.5628 6.06029 12.5128 6.20029 12.5128 6.34029C12.5128 6.64029 12.7328 6.8903 13.0228 6.8903C13.3028 6.8903 13.5328 6.65029 13.5328 6.35029C13.5328 6.05029 13.3128 5.81029 13.0228 5.80029V5.81029Z" fill="white"/>
<path d="M13.0228 5.81029C12.8828 5.81029 12.7528 5.86029 12.6628 5.96029C12.5628 6.06029 12.5128 6.20029 12.5128 6.34029C12.5128 6.64029 12.7328 6.8903 13.0228 6.8903C13.3028 6.8903 13.5328 6.65029 13.5328 6.35029C13.5328 6.05029 13.3128 5.81029 13.0228 5.80029V5.81029Z" fill="#00CDC2"/>
</svg>
