<svg width="18" height="18" viewBox="0 0 18 18" fill="none" xmlns="http://www.w3.org/2000/svg">
<path d="M10.1329 9.55344C10.0429 9.53344 9.95289 9.52344 9.87289 9.52344C7.98289 9.52344 6.08289 9.52344 4.19289 9.52344C4.07289 9.52344 3.94289 9.52344 3.82289 9.52344C3.55289 9.52344 3.2629 9.52344 2.9929 9.52344C2.2029 9.54344 1.60289 9.91344 1.23289 10.6134C1.14289 10.7834 1.09289 10.9734 1.03289 11.1634C1.01289 11.2434 0.982891 11.3334 0.962891 11.4134V15.6334V15.6434C0.962891 15.6534 0.962893 15.6734 0.972893 15.6834C0.972893 15.7034 0.982895 15.7134 0.982895 15.7334C1.17289 16.8234 1.98289 17.5334 3.03289 17.5334C3.59289 17.5334 4.13289 17.5334 4.64289 17.5334C5.46289 17.5334 6.21289 17.5334 6.93289 17.5334C7.13289 17.5334 7.28289 17.5134 7.42289 17.4834C8.38289 17.2534 9.00289 16.4234 9.01289 15.3734C9.01289 14.3734 9.01289 13.3934 9.01289 12.5734C9.01289 12.4434 9.04289 12.3434 9.11289 12.2434C9.41289 11.8234 9.70289 11.4134 10.0029 10.9934L10.3429 10.5134C10.3829 10.4534 10.4229 10.3934 10.4529 10.3334C10.5229 10.1834 10.5329 10.0034 10.4529 9.85344C10.3929 9.71344 10.2629 9.60344 10.1229 9.56344L10.1329 9.55344ZM7.97289 14.4134C7.97289 14.6934 7.97289 14.9834 7.97289 15.2634C7.97289 16.0134 7.57289 16.4434 6.87289 16.4434H3.08289C2.39289 16.4434 1.98289 16.0134 1.98289 15.2834C1.98289 14.1034 1.98289 12.9234 1.98289 11.7434C1.98289 11.0734 2.4029 10.6234 3.0229 10.6234C3.8629 10.6234 4.71289 10.6234 5.55289 10.6234H8.93289C8.93289 10.6234 8.9429 10.6234 8.9529 10.6234L8.7729 10.8834C8.5629 11.1734 8.37289 11.4534 8.17289 11.7334C8.03289 11.9234 7.96289 12.1234 7.97289 12.3734C7.97289 13.0534 7.97289 13.7434 7.97289 14.4134Z" fill="#4D4D4D"/>
<path d="M8.10295 8.49219C10.283 8.49219 12.453 8.49219 14.633 8.49219H14.723C14.843 8.49219 14.973 8.49219 15.103 8.49219C16.203 8.43219 17.033 7.53219 17.043 6.38219C17.053 5.17219 17.053 3.94219 17.043 2.61219C17.043 1.92219 16.753 1.34219 16.213 0.902187C15.923 0.672187 15.5829 0.572187 15.2629 0.492188H10.7629C10.7629 0.492188 10.7529 0.502188 10.7329 0.512188C9.59295 0.762188 8.98296 1.55219 8.98296 2.79219V3.46219C8.98296 4.13219 8.98296 4.80219 8.98296 5.47219C8.98296 5.59219 8.95295 5.68219 8.89295 5.77219C8.62295 6.14219 8.36295 6.52219 8.10295 6.89219C7.94295 7.12219 7.78295 7.34219 7.62295 7.57219C7.46295 7.79219 7.44296 8.00219 7.55296 8.21219C7.68296 8.47219 7.92295 8.50219 8.11295 8.50219L8.10295 8.49219ZM10.013 3.53219V2.75219C10.013 2.01219 10.413 1.58219 11.113 1.58219H14.903C15.603 1.58219 15.993 2.01219 15.993 2.75219V6.24219C15.993 6.97219 15.583 7.41219 14.903 7.41219H9.01295L9.23296 7.09219C9.43296 6.80219 9.62295 6.53219 9.82295 6.26219C9.94295 6.09219 10.003 5.90219 10.003 5.68219C10.003 4.96219 10.003 4.24219 10.003 3.53219H10.013Z" fill="#4D4D4D"/>
<path d="M1.54287 8.49219C2.80287 8.49219 4.07287 8.49219 5.33287 8.49219H6.41287C6.79287 8.49219 7.00287 8.28219 7.00287 7.87219C7.00287 7.60219 7.00287 7.34219 7.00287 7.07219V6.91219C7.00287 5.96219 6.67287 5.17219 6.03287 4.54219C5.90287 4.41219 5.76287 4.30219 5.62287 4.19219C5.57287 4.15219 5.52287 4.11219 5.47287 4.07219L5.49287 4.05219C5.91287 3.54219 6.08287 2.88219 5.97287 2.24219C5.87287 1.63219 5.51287 1.09219 4.98287 0.782187C4.82287 0.682187 4.65287 0.632187 4.47287 0.572187C4.39287 0.542187 4.31287 0.522187 4.23287 0.492188H3.74287C3.44287 0.562188 3.09287 0.662187 2.79287 0.902187C2.33287 1.26219 2.04287 1.78219 1.97287 2.38219C1.90287 2.98219 2.07287 3.57219 2.45287 4.04219C2.46287 4.05219 2.47287 4.07219 2.48287 4.08219C2.42287 4.13219 2.36287 4.18219 2.31287 4.22219C2.15287 4.35219 1.98287 4.49219 1.83287 4.65219C1.34287 5.16219 1.05287 5.77219 0.97287 6.48219C0.97287 6.50219 0.972873 6.51219 0.952873 6.53219V6.56219L0.942871 8.07219V8.09219C1.04287 8.38219 1.24287 8.52219 1.54287 8.52219V8.49219ZM4.63287 3.40219C4.46287 3.57219 4.23287 3.66219 4.00287 3.67219H3.95287C3.69287 3.67219 3.45287 3.55219 3.27287 3.36219C3.08287 3.16219 2.98287 2.89219 2.98287 2.61219C3.00287 2.04219 3.43287 1.58219 3.96287 1.58219H3.98287C4.52287 1.58219 4.96287 2.07219 4.95287 2.63219C4.95287 2.92219 4.83287 3.20219 4.62287 3.40219H4.63287ZM2.43287 5.52219C2.75287 5.10219 3.22287 4.84219 3.74287 4.78219C4.30287 4.71219 4.83287 4.88219 5.24287 5.24219C5.69287 5.64219 5.95287 6.23219 5.96287 6.90219C5.96287 7.01219 5.96287 7.12219 5.96287 7.24219V7.38219H1.99287C1.89287 6.67219 2.05287 6.01219 2.43287 5.52219Z" fill="#4D4D4D"/>
<path d="M15.9329 13.4506C15.8329 13.3606 15.7228 13.2806 15.6128 13.2006C15.5728 13.1706 15.5428 13.1506 15.5128 13.1206C16.3328 12.1206 16.1128 10.8106 15.4128 10.1206C14.6528 9.36056 13.4829 9.34056 12.6829 10.0606C11.9429 10.7406 11.6728 12.1006 12.5328 13.1306C12.5028 13.1506 12.4629 13.1706 12.4329 13.2006C11.7429 13.6706 11.2928 14.3106 11.0928 15.1006C10.9528 15.6706 10.9728 16.2606 11.0028 16.8206V17.0506C11.0228 17.3206 11.2429 17.5206 11.5429 17.5206C12.3729 17.5206 13.2028 17.5206 14.0328 17.5206C14.8628 17.5206 15.7028 17.5206 16.5229 17.5206C16.8429 17.5206 17.0528 17.3006 17.0528 16.9606V16.7506C17.0528 16.4206 17.0628 16.0806 17.0528 15.7506C17.0128 14.8306 16.6428 14.0606 15.9428 13.4406L15.9329 13.4506ZM14.0628 12.7106H14.0229C13.4829 12.7106 13.0429 12.2406 13.0429 11.6706C13.0429 11.1006 13.4729 10.6306 14.0229 10.6206H14.0328C14.2728 10.6206 14.5028 10.7206 14.6928 10.9106C14.9028 11.1106 15.0128 11.3906 15.0128 11.6806C15.0128 12.2406 14.5929 12.7006 14.0729 12.7206L14.0628 12.7106ZM12.0429 16.4306C11.9229 15.2106 12.4028 14.3006 13.3728 13.9306C13.9428 13.7106 14.5628 13.7906 15.0828 14.1306C15.6428 14.5006 15.9928 15.1406 16.0229 15.8406C16.0229 15.9806 16.0229 16.1206 16.0229 16.2706C16.0229 16.3206 16.0229 16.3806 16.0229 16.4306H12.0528H12.0429Z" fill="#4D4D4D"/>
<path d="M6.43298 11.9219C5.79298 11.9219 5.14298 11.9219 4.50298 11.9219H3.53298C3.48298 11.9219 3.43298 11.9219 3.38298 11.9419C3.18298 11.9819 3.04298 12.1219 2.98298 12.3219C2.93298 12.4919 2.96298 12.6719 3.06298 12.8019C3.16298 12.9319 3.32298 13.0119 3.50298 13.0119C3.70298 13.0119 3.90298 13.0119 4.09298 13.0119C4.39298 13.0119 4.68298 13.0119 4.98298 13.0119H5.32298C5.44298 13.0119 5.55297 13.0119 5.67297 13.0119C5.94297 13.0119 6.22298 13.0119 6.49298 13.0119C6.66298 13.0119 6.81298 12.9219 6.90298 12.7819C7.00298 12.6319 7.02298 12.4519 6.96298 12.2819C6.88298 12.0519 6.69297 11.9219 6.42297 11.9219H6.43298Z" fill="#4D4D4D"/>
<path d="M4.95288 14.053C4.79288 14.053 4.63288 14.053 4.47288 14.053H4.24288H3.99288C3.83288 14.053 3.67288 14.053 3.51288 14.053C3.19288 14.053 2.96288 14.273 2.95288 14.583C2.95288 14.733 3.00287 14.873 3.10287 14.973C3.20287 15.073 3.34288 15.133 3.49288 15.133C3.73288 15.133 3.98288 15.133 4.23288 15.133C4.48288 15.133 4.72288 15.133 4.96288 15.133C5.11288 15.133 5.25288 15.073 5.34288 14.973C5.44288 14.873 5.49288 14.723 5.49288 14.573C5.49288 14.263 5.26288 14.053 4.95288 14.043V14.053Z" fill="#4D4D4D"/>
<path d="M11.9329 4.23203C12.0729 4.24203 12.2029 4.22203 12.3029 4.14203C12.4229 4.05203 12.4929 3.90203 12.5229 3.71203C12.5229 3.67203 12.5329 3.62203 12.5429 3.58203C12.5729 3.45203 12.6529 3.33203 12.7629 3.25203C12.8629 3.18203 12.9829 3.16203 13.0929 3.18203C13.3629 3.24203 13.5329 3.49203 13.4929 3.76203C13.4529 4.03203 13.3029 4.15203 12.9729 4.21203C12.6629 4.26203 12.4829 4.50203 12.5129 4.81203C12.5429 5.10203 12.7629 5.29203 13.0629 5.29203H13.0829C13.4729 5.28203 13.8629 5.09203 14.1429 4.77203C14.4429 4.43203 14.5829 3.97203 14.5329 3.51203C14.4429 2.69203 13.8029 2.08203 13.0329 2.08203H13.0029C12.2129 2.10203 11.5729 2.74203 11.5129 3.55203V3.58203C11.4829 3.93203 11.6529 4.19203 11.9429 4.23203H11.9329Z" fill="#4D4D4D"/>
<path d="M13.0229 5.81078C12.8829 5.81078 12.7529 5.86078 12.6629 5.96078C12.5629 6.06078 12.5129 6.20078 12.5129 6.34078C12.5129 6.64078 12.7329 6.89078 13.0229 6.89078C13.3029 6.89078 13.5329 6.65078 13.5329 6.35078C13.5329 6.05078 13.3129 5.81078 13.0229 5.80078V5.81078Z" fill="#4D4D4D"/>
</svg>
