<svg width="18" height="18" viewBox="0 0 18 18" fill="none" xmlns="http://www.w3.org/2000/svg">
<path d="M17.6016 14.2222L17.4916 13.2422C17.3716 12.1622 17.2616 11.0922 17.1416 10.0222C16.9316 8.12221 15.9516 6.71221 14.2516 5.83221C14.2116 5.81221 14.1716 5.79221 14.1216 5.77221C14.2916 5.43221 14.2616 5.09221 14.0516 4.76221C14.2616 4.45221 14.2916 4.11221 14.1316 3.76221C14.5916 3.42221 14.8216 2.94221 14.8016 2.34221C14.8016 2.14221 14.8016 1.95221 14.8016 1.75221C14.8016 1.64221 14.8016 1.52221 14.8016 1.41221C14.8016 0.822215 14.3816 0.402215 13.7916 0.392215C13.6816 0.392215 13.5816 0.392215 13.4716 0.392215C13.2816 0.392215 13.0916 0.392215 12.9116 0.392215C12.3516 0.362215 11.9116 0.522215 11.5616 0.892215C11.1016 0.432215 10.5516 0.292215 9.96156 0.472215C9.36156 0.662215 8.99157 1.10221 8.90157 1.74221C8.87157 1.98221 8.87156 2.22221 8.88156 2.46221V2.54221C8.90156 3.02221 9.10156 3.42221 9.49156 3.73221L9.55156 3.77221C9.39156 4.11221 9.42156 4.45221 9.63156 4.77221C9.41156 5.09222 9.39157 5.43221 9.56157 5.78221L9.29156 5.92221L9.53157 6.40221L9.13156 6.57221V5.43221C9.13156 5.06221 8.99156 4.92221 8.61156 4.92221H0.871567C0.501567 4.92221 0.351562 5.06221 0.351562 5.43221V17.1122C0.351562 17.4822 0.491557 17.6322 0.861557 17.6322H3.98157C3.98157 17.6322 4.07156 17.6322 4.11156 17.6322H4.27156V16.8122H1.17157V5.75221H8.30156V11.9622H9.11156V6.59221H9.88156L9.85156 6.52221C9.85156 6.52221 9.90156 6.50221 9.93156 6.49221C10.0016 6.47221 10.0616 6.45221 10.1316 6.42221C10.2816 6.36221 10.4316 6.31221 10.5716 6.31221C11.2116 6.29221 11.8616 6.30221 12.5016 6.30221H13.0916C13.1616 6.30221 13.2216 6.31221 13.2816 6.33221C13.7616 6.48221 14.1916 6.69221 14.5616 6.98221C15.6416 7.79221 16.2316 8.89221 16.3516 10.3522C16.4216 11.1122 16.5016 11.8722 16.5916 12.6122C16.6416 13.0222 16.6816 13.4222 16.7216 13.8322C16.7316 13.9422 16.7516 14.0522 16.7616 14.1622C16.8016 14.4622 16.8416 14.7622 16.8216 15.0622C16.7616 16.0922 15.9716 16.8122 14.9116 16.8122H10.8616V17.6322H12.2216C12.6316 17.6322 13.0416 17.6322 13.4416 17.6322C13.9616 17.6322 14.4916 17.6322 15.0116 17.6322C16.1916 17.6322 17.2416 16.8122 17.5616 15.6622C17.7016 15.1722 17.6416 14.6922 17.5916 14.2322L17.6016 14.2222ZM12.8416 1.87221C12.8416 2.09221 12.7616 2.23221 12.5816 2.32221C12.4216 2.40221 12.2616 2.38221 12.1216 2.26221C11.9616 2.14221 11.9216 1.97221 11.9716 1.75221C12.0516 1.42221 12.3316 1.21221 12.6616 1.20221C12.7016 1.20221 12.7316 1.20221 12.7616 1.20221H12.8316V1.33221C12.8316 1.51221 12.8316 1.69221 12.8316 1.87221H12.8416ZM11.7816 3.21221C11.2616 3.20221 10.8316 2.77221 10.8216 2.23221C10.8216 2.17221 10.8216 2.11221 10.8216 2.04221V1.80221H10.0316V1.91221C9.97157 2.39221 10.0616 2.82221 10.3016 3.19221C10.1816 3.18221 10.0716 3.13221 9.97156 3.06221C9.80156 2.93221 9.70156 2.74221 9.69156 2.54221C9.68156 2.33221 9.68156 2.10221 9.69156 1.87221C9.71156 1.50221 10.0316 1.20221 10.4216 1.20221H10.4316C10.8216 1.20221 11.1216 1.51221 11.1416 1.90221C11.1716 2.55221 11.5516 3.02221 12.1516 3.15221C12.5116 3.23221 12.8916 3.15221 13.1816 2.91221C13.4716 2.68221 13.6516 2.34221 13.6616 1.97221C13.6616 1.86221 13.6616 1.75221 13.6616 1.64221C13.6616 1.56221 13.6616 1.47221 13.6616 1.39221C13.6616 1.35221 13.6916 1.20221 13.8216 1.20221C13.9116 1.20221 13.9716 1.27221 13.9716 1.38221V1.54221C13.9716 1.87221 13.9716 2.20221 13.9716 2.53221C13.9616 2.90221 13.6516 3.21221 13.2816 3.21221C12.7616 3.22221 12.2616 3.22221 11.7816 3.21221ZM10.4816 5.16221H13.1816C13.2716 5.16221 13.3416 5.18221 13.3716 5.22221C13.3916 5.25221 13.4116 5.28221 13.4116 5.32221C13.4116 5.42221 13.3316 5.48221 13.1816 5.48221C12.2816 5.48221 11.3816 5.48221 10.4816 5.48221C10.3916 5.48221 10.3316 5.46221 10.2916 5.42221C10.2716 5.40221 10.2516 5.36221 10.2516 5.32221C10.2516 5.28221 10.2516 5.16221 10.4816 5.16221ZM13.1916 4.34221H10.4716C10.3916 4.34221 10.3216 4.32221 10.2816 4.28221C10.2616 4.25221 10.2416 4.22221 10.2416 4.17221C10.2416 4.13221 10.2416 4.02221 10.4616 4.02221C10.9116 4.02221 11.3716 4.02221 11.8216 4.02221C12.2716 4.02221 12.7316 4.02221 13.1816 4.02221C13.2616 4.02221 13.3316 4.04221 13.3716 4.08221C13.3916 4.10221 13.4116 4.14221 13.4116 4.18221C13.4116 4.31221 13.2916 4.33221 13.1916 4.33221V4.34221Z" fill="#4D4D4D"/>
<path d="M11.6716 14.8922C11.6716 14.1822 11.6716 13.4622 11.6716 12.7522C11.6716 12.4322 11.5116 12.2822 11.1916 12.2822H6.22156C5.90156 12.2822 5.74156 12.4422 5.74156 12.7622V14.5522H5.11156C4.75156 14.5522 4.60156 14.7022 4.60156 15.0522V17.1022C4.60156 17.4922 4.74157 17.6322 5.14157 17.6322H9.98157C10.4016 17.6322 10.5316 17.5022 10.5316 17.0822V15.3722H10.6816C10.8516 15.3722 11.0216 15.3722 11.1916 15.3722C11.5016 15.3722 11.6616 15.2122 11.6616 14.9022L11.6716 14.8922ZM8.56157 14.5322V13.1122H8.86156V14.5322H8.56157ZM9.70157 15.3722V16.8022H8.55156V15.3722H9.70157ZM10.8316 13.1022V14.5322H9.68156V13.1022H10.8316ZM7.71156 15.3722V16.8022H7.42157V15.3722H7.71156ZM6.58156 15.3722V16.8022H5.43156V15.3722H6.58156ZM7.72156 13.1022V14.5322H6.57156V13.1022H7.72156Z" fill="#4D4D4D"/>
<path d="M7.7215 6.47217H3.7915V7.26217H7.7215V6.47217Z" fill="#4D4D4D"/>
<path d="M2.46144 6.05199C1.93144 6.05199 1.49145 6.48199 1.48145 7.01199C1.48145 7.27199 1.58144 7.52199 1.76144 7.70199C1.94144 7.89199 2.19145 7.99199 2.45145 7.99199C2.98145 7.99199 3.42145 7.56199 3.42145 7.03199C3.42145 6.77199 3.32145 6.52199 3.14145 6.33199C2.96145 6.14199 2.71145 6.04199 2.45145 6.04199L2.46144 6.05199ZM2.46144 7.18199C2.46144 7.18199 2.38144 7.16199 2.35144 7.13199C2.32144 7.10199 2.30144 7.06199 2.30144 7.01199C2.30144 6.93199 2.37144 6.86199 2.46144 6.86199C2.54144 6.86199 2.61144 6.92199 2.62144 7.00199V7.02199C2.62144 7.10199 2.55144 7.17199 2.46144 7.18199Z" fill="#4D4D4D"/>
<path d="M7.72145 8.32227H1.49146V9.11227H7.72145V8.32227Z" fill="#4D4D4D"/>
<path d="M7.72145 9.78223H1.49146V10.5722H7.72145V9.78223Z" fill="#4D4D4D"/>
<path d="M7.72145 11.1021H1.49146V11.8921H7.72145V11.1021Z" fill="#4D4D4D"/>
</svg>
