<svg width="18" height="18" viewBox="0 0 18 18" fill="none" xmlns="http://www.w3.org/2000/svg">
<path d="M17.6016 14.2242L17.4916 13.2442C17.3716 12.1642 17.2616 11.0942 17.1416 10.0242C16.9316 8.12417 15.9516 6.71417 14.2516 5.83417C14.2116 5.81417 14.1716 5.79417 14.1216 5.77417C14.2916 5.43417 14.2616 5.09417 14.0516 4.76417C14.2616 4.45417 14.2916 4.11417 14.1316 3.76417C14.5916 3.42417 14.8216 2.94417 14.8016 2.34417C14.8016 2.14417 14.8016 1.95417 14.8016 1.75417C14.8016 1.64417 14.8016 1.52417 14.8016 1.41417C14.8016 0.824168 14.3816 0.404168 13.7916 0.394168C13.6816 0.394168 13.5816 0.394168 13.4716 0.394168C13.2816 0.394168 13.0916 0.394168 12.9116 0.394168C12.3516 0.364168 11.9116 0.524168 11.5616 0.894168C11.1016 0.434168 10.5516 0.294168 9.96156 0.474168C9.36156 0.664168 8.99157 1.10417 8.90157 1.74417C8.87157 1.98417 8.87156 2.22417 8.88156 2.46417V2.54417C8.90156 3.02417 9.10156 3.42417 9.49156 3.73417L9.55156 3.77417C9.39156 4.11417 9.42156 4.45417 9.63156 4.77417C9.41156 5.09417 9.39157 5.43417 9.56157 5.78417L9.29156 5.92417L9.53157 6.40417L9.13156 6.57417V5.43417C9.13156 5.06417 8.99156 4.92417 8.61156 4.92417H0.871567C0.501567 4.92417 0.351562 5.06417 0.351562 5.43417V17.1142C0.351562 17.4842 0.491557 17.6342 0.861557 17.6342H3.98157C3.98157 17.6342 4.07156 17.6342 4.11156 17.6342H4.27156V16.8142H1.17157V5.75417H8.30156V11.9642H9.11156V6.59417H9.88156L9.85156 6.52417C9.85156 6.52417 9.90156 6.50417 9.93156 6.49417C10.0016 6.47417 10.0616 6.45417 10.1316 6.42417C10.2816 6.36417 10.4316 6.31417 10.5716 6.31417C11.2116 6.29417 11.8616 6.30417 12.5016 6.30417H13.0916C13.1616 6.30417 13.2216 6.31417 13.2816 6.33417C13.7616 6.48417 14.1916 6.69417 14.5616 6.98417C15.6416 7.79417 16.2316 8.89417 16.3516 10.3542C16.4216 11.1142 16.5016 11.8742 16.5916 12.6142C16.6416 13.0242 16.6816 13.4242 16.7216 13.8342C16.7316 13.9442 16.7516 14.0542 16.7616 14.1642C16.8016 14.4642 16.8416 14.7642 16.8216 15.0642C16.7616 16.0942 15.9716 16.8142 14.9116 16.8142H10.8616V17.6342H12.2216C12.6316 17.6342 13.0416 17.6342 13.4416 17.6342C13.9616 17.6342 14.4916 17.6342 15.0116 17.6342C16.1916 17.6342 17.2416 16.8142 17.5616 15.6642C17.7016 15.1742 17.6416 14.6942 17.5916 14.2342L17.6016 14.2242ZM12.8416 1.87417C12.8416 2.09417 12.7616 2.23417 12.5816 2.32417C12.4216 2.40417 12.2616 2.38417 12.1216 2.26417C11.9616 2.14417 11.9216 1.97417 11.9716 1.75417C12.0516 1.42417 12.3316 1.21417 12.6616 1.20417C12.7016 1.20417 12.7316 1.20417 12.7616 1.20417H12.8316V1.33417C12.8316 1.51417 12.8316 1.69417 12.8316 1.87417H12.8416ZM11.7816 3.21417C11.2616 3.20417 10.8316 2.77417 10.8216 2.23417C10.8216 2.17417 10.8216 2.11417 10.8216 2.04417V1.80417H10.0316V1.91417C9.97157 2.39417 10.0616 2.82417 10.3016 3.19417C10.1816 3.18417 10.0716 3.13417 9.97156 3.06417C9.80156 2.93417 9.70156 2.74417 9.69156 2.54417C9.68156 2.33417 9.68156 2.10417 9.69156 1.87417C9.71156 1.50417 10.0316 1.20417 10.4216 1.20417H10.4316C10.8216 1.20417 11.1216 1.51417 11.1416 1.90417C11.1716 2.55417 11.5516 3.02417 12.1516 3.15417C12.5116 3.23417 12.8916 3.15417 13.1816 2.91417C13.4716 2.68417 13.6516 2.34417 13.6616 1.97417C13.6616 1.86417 13.6616 1.75417 13.6616 1.64417C13.6616 1.56417 13.6616 1.47417 13.6616 1.39417C13.6616 1.35417 13.6916 1.20417 13.8216 1.20417C13.9116 1.20417 13.9716 1.27417 13.9716 1.38417V1.54417C13.9716 1.87417 13.9716 2.20417 13.9716 2.53417C13.9616 2.90417 13.6516 3.21417 13.2816 3.21417C12.7616 3.22417 12.2616 3.22417 11.7816 3.21417ZM10.4816 5.16417H13.1816C13.2716 5.16417 13.3416 5.18417 13.3716 5.22417C13.3916 5.25417 13.4116 5.28417 13.4116 5.32417C13.4116 5.42417 13.3316 5.48417 13.1816 5.48417C12.2816 5.48417 11.3816 5.48417 10.4816 5.48417C10.3916 5.48417 10.3316 5.46417 10.2916 5.42417C10.2716 5.40417 10.2516 5.36417 10.2516 5.32417C10.2516 5.28417 10.2516 5.16417 10.4816 5.16417ZM13.1916 4.34417H10.4716C10.3916 4.34417 10.3216 4.32417 10.2816 4.28417C10.2616 4.25417 10.2416 4.22417 10.2416 4.17417C10.2416 4.13417 10.2416 4.02417 10.4616 4.02417C10.9116 4.02417 11.3716 4.02417 11.8216 4.02417C12.2716 4.02417 12.7316 4.02417 13.1816 4.02417C13.2616 4.02417 13.3316 4.04417 13.3716 4.08417C13.3916 4.10417 13.4116 4.14417 13.4116 4.18417C13.4116 4.31417 13.2916 4.33417 13.1916 4.33417V4.34417Z" fill="white"/>
<path d="M17.6016 14.2242L17.4916 13.2442C17.3716 12.1642 17.2616 11.0942 17.1416 10.0242C16.9316 8.12417 15.9516 6.71417 14.2516 5.83417C14.2116 5.81417 14.1716 5.79417 14.1216 5.77417C14.2916 5.43417 14.2616 5.09417 14.0516 4.76417C14.2616 4.45417 14.2916 4.11417 14.1316 3.76417C14.5916 3.42417 14.8216 2.94417 14.8016 2.34417C14.8016 2.14417 14.8016 1.95417 14.8016 1.75417C14.8016 1.64417 14.8016 1.52417 14.8016 1.41417C14.8016 0.824168 14.3816 0.404168 13.7916 0.394168C13.6816 0.394168 13.5816 0.394168 13.4716 0.394168C13.2816 0.394168 13.0916 0.394168 12.9116 0.394168C12.3516 0.364168 11.9116 0.524168 11.5616 0.894168C11.1016 0.434168 10.5516 0.294168 9.96156 0.474168C9.36156 0.664168 8.99157 1.10417 8.90157 1.74417C8.87157 1.98417 8.87156 2.22417 8.88156 2.46417V2.54417C8.90156 3.02417 9.10156 3.42417 9.49156 3.73417L9.55156 3.77417C9.39156 4.11417 9.42156 4.45417 9.63156 4.77417C9.41156 5.09417 9.39157 5.43417 9.56157 5.78417L9.29156 5.92417L9.53157 6.40417L9.13156 6.57417V5.43417C9.13156 5.06417 8.99156 4.92417 8.61156 4.92417H0.871567C0.501567 4.92417 0.351562 5.06417 0.351562 5.43417V17.1142C0.351562 17.4842 0.491557 17.6342 0.861557 17.6342H3.98157C3.98157 17.6342 4.07156 17.6342 4.11156 17.6342H4.27156V16.8142H1.17157V5.75417H8.30156V11.9642H9.11156V6.59417H9.88156L9.85156 6.52417C9.85156 6.52417 9.90156 6.50417 9.93156 6.49417C10.0016 6.47417 10.0616 6.45417 10.1316 6.42417C10.2816 6.36417 10.4316 6.31417 10.5716 6.31417C11.2116 6.29417 11.8616 6.30417 12.5016 6.30417H13.0916C13.1616 6.30417 13.2216 6.31417 13.2816 6.33417C13.7616 6.48417 14.1916 6.69417 14.5616 6.98417C15.6416 7.79417 16.2316 8.89417 16.3516 10.3542C16.4216 11.1142 16.5016 11.8742 16.5916 12.6142C16.6416 13.0242 16.6816 13.4242 16.7216 13.8342C16.7316 13.9442 16.7516 14.0542 16.7616 14.1642C16.8016 14.4642 16.8416 14.7642 16.8216 15.0642C16.7616 16.0942 15.9716 16.8142 14.9116 16.8142H10.8616V17.6342H12.2216C12.6316 17.6342 13.0416 17.6342 13.4416 17.6342C13.9616 17.6342 14.4916 17.6342 15.0116 17.6342C16.1916 17.6342 17.2416 16.8142 17.5616 15.6642C17.7016 15.1742 17.6416 14.6942 17.5916 14.2342L17.6016 14.2242ZM12.8416 1.87417C12.8416 2.09417 12.7616 2.23417 12.5816 2.32417C12.4216 2.40417 12.2616 2.38417 12.1216 2.26417C11.9616 2.14417 11.9216 1.97417 11.9716 1.75417C12.0516 1.42417 12.3316 1.21417 12.6616 1.20417C12.7016 1.20417 12.7316 1.20417 12.7616 1.20417H12.8316V1.33417C12.8316 1.51417 12.8316 1.69417 12.8316 1.87417H12.8416ZM11.7816 3.21417C11.2616 3.20417 10.8316 2.77417 10.8216 2.23417C10.8216 2.17417 10.8216 2.11417 10.8216 2.04417V1.80417H10.0316V1.91417C9.97157 2.39417 10.0616 2.82417 10.3016 3.19417C10.1816 3.18417 10.0716 3.13417 9.97156 3.06417C9.80156 2.93417 9.70156 2.74417 9.69156 2.54417C9.68156 2.33417 9.68156 2.10417 9.69156 1.87417C9.71156 1.50417 10.0316 1.20417 10.4216 1.20417H10.4316C10.8216 1.20417 11.1216 1.51417 11.1416 1.90417C11.1716 2.55417 11.5516 3.02417 12.1516 3.15417C12.5116 3.23417 12.8916 3.15417 13.1816 2.91417C13.4716 2.68417 13.6516 2.34417 13.6616 1.97417C13.6616 1.86417 13.6616 1.75417 13.6616 1.64417C13.6616 1.56417 13.6616 1.47417 13.6616 1.39417C13.6616 1.35417 13.6916 1.20417 13.8216 1.20417C13.9116 1.20417 13.9716 1.27417 13.9716 1.38417V1.54417C13.9716 1.87417 13.9716 2.20417 13.9716 2.53417C13.9616 2.90417 13.6516 3.21417 13.2816 3.21417C12.7616 3.22417 12.2616 3.22417 11.7816 3.21417ZM10.4816 5.16417H13.1816C13.2716 5.16417 13.3416 5.18417 13.3716 5.22417C13.3916 5.25417 13.4116 5.28417 13.4116 5.32417C13.4116 5.42417 13.3316 5.48417 13.1816 5.48417C12.2816 5.48417 11.3816 5.48417 10.4816 5.48417C10.3916 5.48417 10.3316 5.46417 10.2916 5.42417C10.2716 5.40417 10.2516 5.36417 10.2516 5.32417C10.2516 5.28417 10.2516 5.16417 10.4816 5.16417ZM13.1916 4.34417H10.4716C10.3916 4.34417 10.3216 4.32417 10.2816 4.28417C10.2616 4.25417 10.2416 4.22417 10.2416 4.17417C10.2416 4.13417 10.2416 4.02417 10.4616 4.02417C10.9116 4.02417 11.3716 4.02417 11.8216 4.02417C12.2716 4.02417 12.7316 4.02417 13.1816 4.02417C13.2616 4.02417 13.3316 4.04417 13.3716 4.08417C13.3916 4.10417 13.4116 4.14417 13.4116 4.18417C13.4116 4.31417 13.2916 4.33417 13.1916 4.33417V4.34417Z" fill="#00CDC2"/>
<path d="M11.6716 14.8952C11.6716 14.1852 11.6716 13.4652 11.6716 12.7552C11.6716 12.4352 11.5116 12.2852 11.1916 12.2852H6.22156C5.90156 12.2852 5.74156 12.4452 5.74156 12.7652V14.5552H5.11156C4.75156 14.5552 4.60156 14.7052 4.60156 15.0552V17.1052C4.60156 17.4952 4.74157 17.6352 5.14157 17.6352H9.98157C10.4016 17.6352 10.5316 17.5052 10.5316 17.0852V15.3752H10.6816C10.8516 15.3752 11.0216 15.3752 11.1916 15.3752C11.5016 15.3752 11.6616 15.2152 11.6616 14.9052L11.6716 14.8952ZM8.56157 14.5352V13.1152H8.86156V14.5352H8.56157ZM9.70157 15.3752V16.8052H8.55156V15.3752H9.70157ZM10.8316 13.1052V14.5352H9.68156V13.1052H10.8316ZM7.71156 15.3752V16.8052H7.42157V15.3752H7.71156ZM6.58156 15.3752V16.8052H5.43156V15.3752H6.58156ZM7.72156 13.1052V14.5352H6.57156V13.1052H7.72156Z" fill="white"/>
<path d="M11.6716 14.8952C11.6716 14.1852 11.6716 13.4652 11.6716 12.7552C11.6716 12.4352 11.5116 12.2852 11.1916 12.2852H6.22156C5.90156 12.2852 5.74156 12.4452 5.74156 12.7652V14.5552H5.11156C4.75156 14.5552 4.60156 14.7052 4.60156 15.0552V17.1052C4.60156 17.4952 4.74157 17.6352 5.14157 17.6352H9.98157C10.4016 17.6352 10.5316 17.5052 10.5316 17.0852V15.3752H10.6816C10.8516 15.3752 11.0216 15.3752 11.1916 15.3752C11.5016 15.3752 11.6616 15.2152 11.6616 14.9052L11.6716 14.8952ZM8.56157 14.5352V13.1152H8.86156V14.5352H8.56157ZM9.70157 15.3752V16.8052H8.55156V15.3752H9.70157ZM10.8316 13.1052V14.5352H9.68156V13.1052H10.8316ZM7.71156 15.3752V16.8052H7.42157V15.3752H7.71156ZM6.58156 15.3752V16.8052H5.43156V15.3752H6.58156ZM7.72156 13.1052V14.5352H6.57156V13.1052H7.72156Z" fill="#00CDC2"/>
<path d="M7.7215 6.47266H3.7915V7.26266H7.7215V6.47266Z" fill="white"/>
<path d="M7.7215 6.47266H3.7915V7.26266H7.7215V6.47266Z" fill="#00CDC2"/>
<path d="M2.46144 6.05297C1.93144 6.05297 1.49145 6.48297 1.48145 7.01297C1.48145 7.27297 1.58144 7.52297 1.76144 7.70297C1.94144 7.89297 2.19145 7.99297 2.45145 7.99297C2.98145 7.99297 3.42145 7.56297 3.42145 7.03297C3.42145 6.77297 3.32145 6.52297 3.14145 6.33297C2.96145 6.14297 2.71145 6.04297 2.45145 6.04297L2.46144 6.05297ZM2.46144 7.18297C2.46144 7.18297 2.38144 7.16297 2.35144 7.13297C2.32144 7.10297 2.30144 7.06297 2.30144 7.01297C2.30144 6.93297 2.37144 6.86297 2.46144 6.86297C2.54144 6.86297 2.61144 6.92297 2.62144 7.00297V7.02297C2.62144 7.10297 2.55144 7.17297 2.46144 7.18297Z" fill="white"/>
<path d="M2.46144 6.05297C1.93144 6.05297 1.49145 6.48297 1.48145 7.01297C1.48145 7.27297 1.58144 7.52297 1.76144 7.70297C1.94144 7.89297 2.19145 7.99297 2.45145 7.99297C2.98145 7.99297 3.42145 7.56297 3.42145 7.03297C3.42145 6.77297 3.32145 6.52297 3.14145 6.33297C2.96145 6.14297 2.71145 6.04297 2.45145 6.04297L2.46144 6.05297ZM2.46144 7.18297C2.46144 7.18297 2.38144 7.16297 2.35144 7.13297C2.32144 7.10297 2.30144 7.06297 2.30144 7.01297C2.30144 6.93297 2.37144 6.86297 2.46144 6.86297C2.54144 6.86297 2.61144 6.92297 2.62144 7.00297V7.02297C2.62144 7.10297 2.55144 7.17297 2.46144 7.18297Z" fill="#00CDC2"/>
<path d="M7.72145 8.32422H1.49146V9.11422H7.72145V8.32422Z" fill="white"/>
<path d="M7.72145 8.32422H1.49146V9.11422H7.72145V8.32422Z" fill="#00CDC2"/>
<path d="M7.72145 9.78516H1.49146V10.5752H7.72145V9.78516Z" fill="white"/>
<path d="M7.72145 9.78516H1.49146V10.5752H7.72145V9.78516Z" fill="#00CDC2"/>
<path d="M7.72145 11.1055H1.49146V11.8955H7.72145V11.1055Z" fill="white"/>
<path d="M7.72145 11.1055H1.49146V11.8955H7.72145V11.1055Z" fill="#00CDC2"/>
</svg>
