<svg width="24" height="24" viewBox="0 0 19 18" fill="none" xmlns="http://www.w3.org/2000/svg">
<path d="M4.4975 7.74001L5.425 6.81251L4.4975 5.88501L5.425 4.95751L7.28 6.81251L5.425 8.66751L4.4975 7.74001ZM2.03 6.37501C2.05625 6.37501 2.07375 6.38376 2.1 6.38376C2.62193 5.08912 3.51892 3.98003 4.67579 3.19891C5.83266 2.41779 7.19661 2.00029 8.5925 2.00001C10.5087 2.00001 12.2325 2.77001 13.5012 4.01251C13.6325 3.48751 13.895 2.88376 14.21 2.29751C12.635 0.972334 10.642 0.247048 8.58375 0.250009C4.31375 0.250009 0.76125 3.32126 0 7.37251C0.49 6.76001 1.23375 6.37501 2.03 6.37501ZM16.4675 7.68751C16.1 7.68751 15.75 7.60876 15.4262 7.49501C15.5312 7.97626 15.5925 8.48376 15.5925 9.00001C15.5925 12.8675 12.46 16 8.5925 16C5.6525 16 3.14125 14.1888 2.1 11.6163C2.07375 11.6163 2.05625 11.625 2.03 11.625C1.575 11.625 1.12 11.5025 0.7175 11.275C0.4375 11.1175 0.20125 10.9075 0 10.6625C0.77875 14.6963 4.31375 17.75 8.575 17.75C13.4225 17.75 17.3425 13.83 17.3425 9.00001C17.3425 8.51876 17.29 8.04626 17.22 7.58251C16.9745 7.64861 16.7217 7.68388 16.4675 7.68751ZM16.4675 1.12501C16.4675 1.12501 14.7175 3.66251 14.7175 4.62501C14.7175 5.58751 15.505 6.37501 16.4675 6.37501C17.43 6.37501 18.2175 5.58751 18.2175 4.62501C18.2175 3.66251 16.4675 1.12501 16.4675 1.12501ZM11.76 4.95751L9.905 6.81251L11.76 8.66751L12.6875 7.74001L11.76 6.81251L12.6875 5.88501L11.76 4.95751ZM5.5825 13.375C6.18625 12.3338 7.30625 11.625 8.5925 11.625C9.87875 11.625 10.9987 12.3338 11.6025 13.375H13.0725C12.3725 11.5813 10.6312 10.3125 8.5925 10.3125C7.83125 10.3125 7.105 10.4875 6.46625 10.8113L3.33375 9.00001C3.33375 8.54501 3.10625 8.10751 2.68625 7.87126C2.05625 7.51251 1.26 7.72251 0.8925 8.35251C0.53375 8.98251 0.74375 9.77876 1.37375 10.1463C1.79375 10.3913 2.2925 10.365 2.6775 10.1463L5.27625 11.6513C4.7775 12.115 4.375 12.71 4.1125 13.375H5.5825Z" fill="#E20C00"/>
</svg>
